<svg width="93" height="43" viewBox="0 0 93 43" fill="none" xmlns="http://www.w3.org/2000/svg">
<path d="M13.608 20.728V28.728H17.352C17.928 28.728 18.408 28.632 18.792 28.44C19.1973 28.2267 19.5173 27.9493 19.752 27.608C19.9867 27.2453 20.1467 26.8293 20.232 26.36C20.3387 25.8693 20.392 25.3573 20.392 24.824C20.392 24.2693 20.3387 23.7467 20.232 23.256C20.1467 22.744 19.9867 22.3067 19.752 21.944C19.5173 21.56 19.1973 21.2613 18.792 21.048C18.408 20.8347 17.928 20.728 17.352 20.728H13.608ZM19.656 14.552C19.6133 14.04 19.5173 13.5493 19.368 13.08C19.24 12.5893 19.0373 12.1627 18.76 11.8C18.504 11.416 18.184 11.1173 17.8 10.904C17.416 10.6693 16.968 10.552 16.456 10.552C16.2427 10.552 15.912 10.584 15.464 10.648C15.0373 10.712 14.4187 10.9147 13.608 11.256V18.488H16.616C17.2133 18.488 17.704 18.3813 18.088 18.168C18.472 17.9547 18.7813 17.6773 19.016 17.336C19.2507 16.9733 19.4107 16.5573 19.496 16.088C19.6027 15.5973 19.656 15.0853 19.656 14.552ZM16.712 8.28C17.416 8.28 17.9493 8.36533 18.312 8.536C18.696 8.68533 18.9627 8.81333 19.112 8.92C19.1333 8.94133 19.144 8.952 19.144 8.952C19.912 9.42133 20.584 10.1467 21.16 11.128C21.736 12.088 22.024 13.1867 22.024 14.424C22.024 14.8933 22.0027 15.3627 21.96 15.832C21.9387 16.28 21.864 16.728 21.736 17.176C21.608 17.6027 21.416 18.0293 21.16 18.456C20.9253 18.8613 20.5947 19.2453 20.168 19.608C20.7227 19.992 21.16 20.3867 21.48 20.792C21.8213 21.1973 22.0773 21.6133 22.248 22.04C22.4187 22.4667 22.5253 22.9147 22.568 23.384C22.632 23.832 22.664 24.312 22.664 24.824C22.6853 25.4853 22.6213 26.0933 22.472 26.648C22.344 27.2027 22.184 27.6933 21.992 28.12C21.8 28.5253 21.608 28.856 21.416 29.112C21.224 29.368 21.0853 29.528 21 29.592C20.616 29.9547 20.136 30.2853 19.56 30.584C18.984 30.8613 18.248 31 17.352 31H11.4V9.56C12.232 9.24 12.968 8.99467 13.608 8.824C14.248 8.632 14.696 8.51467 14.952 8.472C15.528 8.344 16.1147 8.28 16.712 8.28ZM26.5868 28.568C26.3094 28.0133 26.1494 27.4693 26.1068 26.936C26.0641 26.4027 26.0428 25.848 26.0428 25.272V15H28.0908V26.232C28.0908 27.2133 28.3574 27.9707 28.8908 28.504C29.4241 29.016 30.0108 29.272 30.6508 29.272C31.2694 29.272 31.8881 29.1653 32.5068 28.952C33.1468 28.7173 33.6481 28.4827 34.0108 28.248V15H36.0268V29.144L36.8268 29.88L35.3868 31.32L34.4268 30.36C33.8294 30.6587 33.1894 30.8827 32.5068 31.032C31.8241 31.1813 31.2161 31.256 30.6828 31.256C29.8934 31.256 29.1148 31.0533 28.3468 30.648C27.6001 30.2427 27.0134 29.5493 26.5868 28.568ZM47.0568 23.224C47.0568 23.2027 46.9608 23.1493 46.7688 23.064C46.5981 22.9573 46.3634 22.8507 46.0648 22.744C45.7661 22.6373 45.4141 22.5413 45.0088 22.456C44.6034 22.3707 44.1768 22.328 43.7288 22.328C43.0674 22.328 42.5021 22.5733 42.0328 23.064C41.5848 23.5547 41.3608 24.1307 41.3608 24.792V26.776C41.3608 27.4587 41.5848 28.0453 42.0328 28.536C42.5021 29.0053 43.0568 29.24 43.6968 29.24C43.9314 29.24 44.2408 29.1867 44.6248 29.08C45.0088 28.9733 45.3821 28.856 45.7448 28.728C46.1501 28.5787 46.5874 28.3973 47.0568 28.184V23.224ZM49.0728 29.176L49.7768 29.816L48.3368 31.256L47.4728 30.392C46.8114 30.712 46.1181 30.9467 45.3928 31.096C44.6674 31.2453 44.1128 31.32 43.7288 31.32C43.1101 31.32 42.5341 31.2027 42.0008 30.968C41.4674 30.712 41.0088 30.3707 40.6248 29.944C40.2408 29.5173 39.9314 29.0267 39.6968 28.472C39.4834 27.896 39.3768 27.288 39.3768 26.648V24.888C39.3768 24.2693 39.4834 23.6827 39.6968 23.128C39.9314 22.5733 40.2408 22.0933 40.6248 21.688C41.0088 21.2613 41.4674 20.9307 42.0008 20.696C42.5341 20.44 43.1101 20.312 43.7288 20.312C43.8568 20.312 44.0488 20.3227 44.3048 20.344C44.5821 20.344 44.8808 20.376 45.2008 20.44C45.5208 20.4827 45.8408 20.5573 46.1608 20.664C46.5021 20.7493 46.8114 20.8667 47.0888 21.016V20.344C47.0888 19.896 47.0034 19.448 46.8328 19C46.6834 18.552 46.4701 18.1573 46.1927 17.816C45.9154 17.4747 45.5848 17.1973 45.2008 16.984C44.8381 16.7707 44.4541 16.664 44.0488 16.664C43.8994 16.664 43.6008 16.7173 43.1528 16.824C42.7261 16.9307 42.2674 17.0373 41.7768 17.144C41.2221 17.2933 40.6034 17.4533 39.9208 17.624L39.3768 15.704C40.0808 15.512 40.7421 15.3413 41.3608 15.192C41.8941 15.064 42.4168 14.9467 42.9288 14.84C43.4408 14.7333 43.8141 14.68 44.0488 14.68C44.7314 14.68 45.3714 14.84 45.9688 15.16C46.5874 15.48 47.1208 15.9067 47.5688 16.44C48.0168 16.9733 48.3688 17.5813 48.6248 18.264C48.9021 18.9253 49.0408 19.6187 49.0408 20.344L49.0728 29.176ZM53.982 16.952H51.326V14.968H53.982V8.76H56.062V14.968H58.91V16.952H56.062V26.904C56.062 27.672 56.254 28.2053 56.638 28.504C57.022 28.7813 57.4807 28.92 58.014 28.92H58.91V31.032H57.854C56.766 31.032 55.8487 30.7013 55.102 30.04C54.3553 29.3573 53.982 28.2587 53.982 26.744V16.952ZM61.3218 30.84V27.672H63.9138V30.84H61.3218ZM67.6083 8.76H69.7203V11.64H67.6083V8.76ZM67.6083 15H69.7203V31H67.6083V15ZM83.1435 17.4C83.3995 17.9547 83.5488 18.4987 83.5915 19.032C83.6342 19.5653 83.6555 20.12 83.6555 20.696V31H81.5755V19.736C81.5755 18.7547 81.3088 18.008 80.7755 17.496C80.2635 16.9627 79.6875 16.696 79.0475 16.696C78.6848 16.696 78.2155 16.7493 77.6395 16.856C77.0848 16.9413 76.4342 17.2293 75.6875 17.72V31H73.6715V16.824L72.9035 16.088L74.3115 14.648L75.3035 15.608C76.4128 15.0107 77.4795 14.712 78.5035 14.712C79.4635 14.712 80.3702 14.9147 81.2235 15.32C82.0768 15.7253 82.7168 16.4187 83.1435 17.4Z" fill="white"/>
<rect x="1" y="1" width="91" height="41" rx="7" stroke="white" stroke-width="2"/>
</svg>
