<svg width="34" height="27" viewBox="0 0 34 27" fill="none" xmlns="http://www.w3.org/2000/svg">
<path d="M1.28911 8.708C1.64552 4.0286 4.91317 0.435181 8.5876 0.681885C12.262 0.928589 14.9518 4.92199 14.5954 9.6014C14.239 14.2808 10.9714 17.8742 7.29693 17.6275C3.62249 17.3808 0.932703 13.3874 1.28911 8.708Z" fill="white"/>
<path d="M2.793 4.18333C1.81641 6.03039 1.20355 8.22654 1.01616 10.5506C0.828773 12.8746 1.07346 15.2445 1.72559 17.4215C2.37772 19.5985 3.41425 21.5058 4.7308 22.9512C6.04734 24.3967 7.5974 25.3292 9.22486 25.6549L9.56164 21.4156C8.45573 21.1942 7.40242 20.5605 6.50779 19.5783C5.61317 18.5961 4.90881 17.3001 4.46567 15.8207C4.02253 14.3414 3.85626 12.731 3.98359 11.1517C4.11093 9.57248 4.52738 8.08013 5.191 6.825L2.793 4.18333Z" fill="white"/>
<path d="M18.8086 8.53027C19.1651 3.85086 22.4327 0.257447 26.1071 0.504151C29.7816 0.750855 32.4714 4.74425 32.115 9.42366C31.7585 14.1031 28.4909 17.6965 24.8165 17.4498C21.142 17.2031 18.4522 13.2097 18.8086 8.53027Z" fill="white"/>
<path d="M20.3125 4.00559C19.3359 5.85265 18.7231 8.0488 18.5357 10.3728C18.3483 12.6969 18.593 15.0668 19.2451 17.2438C19.8972 19.4208 20.9338 21.3281 22.2503 22.7735C23.5669 24.2189 25.1169 25.1515 26.7444 25.4772L27.0812 21.2378C25.9753 21.0165 24.922 20.3828 24.0273 19.4006C23.1327 18.4184 22.4283 17.1223 21.9852 15.643C21.5421 14.1637 21.3758 12.5533 21.5031 10.974C21.6305 9.39474 22.0469 7.9024 22.7105 6.64727L20.3125 4.00559Z" fill="white"/>
</svg>
