<svg width="88" height="88" viewBox="0 0 88 88" fill="none" xmlns="http://www.w3.org/2000/svg">
<circle cx="38.5" cy="38.5" r="38.5" fill="#00FFAD"/>
<circle cx="45.665" cy="45.665" r="37.165" stroke="#323232" stroke-width="9"/>
<path d="M44.5568 67.3636V23.7273H47.3523V67.3636H44.5568ZM51.9716 38.1307C51.8352 36.7557 51.25 35.6875 50.2159 34.9261C49.1818 34.1648 47.7784 33.7841 46.0057 33.7841C44.8011 33.7841 43.7841 33.9545 42.9545 34.2955C42.125 34.625 41.4886 35.0852 41.0455 35.6761C40.6136 36.267 40.3977 36.9375 40.3977 37.6875C40.375 38.3125 40.5057 38.858 40.7898 39.3239C41.0852 39.7898 41.4886 40.1932 42 40.5341C42.5114 40.8636 43.1023 41.1534 43.7727 41.4034C44.4432 41.642 45.1591 41.8466 45.9205 42.017L49.0568 42.767C50.5795 43.108 51.9773 43.5625 53.25 44.1307C54.5227 44.6989 55.625 45.3977 56.5568 46.2273C57.4886 47.0568 58.2102 48.0341 58.7216 49.1591C59.2443 50.2841 59.5114 51.5739 59.5227 53.0284C59.5114 55.1648 58.9659 57.017 57.8864 58.5852C56.8182 60.142 55.2727 61.3523 53.25 62.2159C51.2386 63.0682 48.8125 63.4943 45.9716 63.4943C43.1534 63.4943 40.6989 63.0625 38.608 62.1989C36.5284 61.3352 34.9034 60.0568 33.733 58.3636C32.5739 56.6591 31.9659 54.5511 31.9091 52.0398H39.0511C39.1307 53.2102 39.4659 54.1875 40.0568 54.9716C40.6591 55.7443 41.4602 56.3295 42.4602 56.7273C43.4716 57.1136 44.6136 57.3068 45.8864 57.3068C47.1364 57.3068 48.2216 57.125 49.142 56.7614C50.0739 56.3977 50.7955 55.892 51.3068 55.2443C51.8182 54.5966 52.0739 53.8523 52.0739 53.0114C52.0739 52.2273 51.8409 51.5682 51.375 51.0341C50.9205 50.5 50.25 50.0455 49.3636 49.6705C48.4886 49.2955 47.4148 48.9545 46.142 48.6477L42.3409 47.6932C39.3977 46.9773 37.0739 45.858 35.3693 44.3352C33.6648 42.8125 32.8182 40.7614 32.8295 38.1818C32.8182 36.0682 33.3807 34.2216 34.517 32.642C35.6648 31.0625 37.2386 29.8295 39.2386 28.9432C41.2386 28.0568 43.5114 27.6136 46.0568 27.6136C48.6477 27.6136 50.9091 28.0568 52.8409 28.9432C54.7841 29.8295 56.2955 31.0625 57.375 32.642C58.4545 34.2216 59.0114 36.0511 59.0455 38.1307H51.9716Z" fill="#323232"/>
</svg>
