<svg width="105" height="100" viewBox="0 0 105 100" fill="none" xmlns="http://www.w3.org/2000/svg">
<rect y="9" width="78" height="56" rx="9" fill="#00FFAD"/>
<rect x="69" y="45" width="22" height="30" rx="9" fill="#00FFAD"/>
<g clip-path="url(#clip0_26_18)">
<path d="M21.6667 25H96.6667V16.6667H21.6667C17.0833 16.6667 13.3333 20.4167 13.3333 25V70.8333H5V83.3333H63.3333V70.8333H21.6667V25ZM100.833 33.3333H75.8333C73.5417 33.3333 71.6667 35.2083 71.6667 37.5V79.1667C71.6667 81.4583 73.5417 83.3333 75.8333 83.3333H100.833C103.125 83.3333 105 81.4583 105 79.1667V37.5C105 35.2083 103.125 33.3333 100.833 33.3333ZM96.6667 70.8333H80V41.6667H96.6667V70.8333Z" fill="#323232"/>
</g>
<defs>
<clipPath id="clip0_26_18">
<rect width="100" height="100" fill="white" transform="translate(5)"/>
</clipPath>
</defs>
</svg>
