<svg width="105" height="100" viewBox="0 0 105 100" fill="none" xmlns="http://www.w3.org/2000/svg">
<rect y="6" width="90" height="63" rx="9" fill="#00FFAD"/>
<g clip-path="url(#clip0_26_20)">
<path d="M92.5001 12.5H17.5001C12.9167 12.5 9.16675 16.25 9.16675 20.8333V70.8333C9.16675 75.4167 12.9167 79.1667 17.5001 79.1667H38.3334V87.5H71.6667V79.1667H92.5001C97.0834 79.1667 100.833 75.4167 100.833 70.8333V20.8333C100.833 16.25 97.0834 12.5 92.5001 12.5ZM92.5001 70.8333H17.5001V20.8333H92.5001V70.8333ZM84.1667 33.3333H38.3334V41.6667H84.1667V33.3333ZM84.1667 50H38.3334V58.3333H84.1667V50ZM34.1667 33.3333H25.8334V41.6667H34.1667V33.3333ZM34.1667 50H25.8334V58.3333H34.1667V50Z" fill="#323232"/>
</g>
<defs>
<clipPath id="clip0_26_20">
<rect width="100" height="100" fill="white" transform="translate(5)"/>
</clipPath>
</defs>
</svg>
